HIERARCHY
ROOT Hips
{
  OFFSET 0.0502701 92.146 0
  CHANNELS 6 Xposition Yposition Zposition Zrotation Xrotation Yrotation
  JOINT Bip01_Pelvis
  {
    OFFSET 0 0 0
    CHANNELS 6 Xposition Yposition Zposition Zrotation Xrotation Yrotation
    JOINT BN_Tai_01
    {
      OFFSET -4.6544 -2.06234 0
      CHANNELS 6 Xposition Yposition Zposition Zrotation Xrotation Yrotation
      JOINT BN_Tai_R_01
      {
        OFFSET 10.2279 -0.119812 3.68897
        CHANNELS 6 Xposition Yposition Zposition Zrotation Xrotation Yrotation
        JOINT BN_Tai_R_02
        {
          OFFSET 15.0421 0 1.52588e-005
          CHANNELS 6 Xposition Yposition Zposition Zrotation Xrotation Yrotation
          End Site
          {
            OFFSET 0 0 0
          }
        }
      }
      JOINT BN_Tai_L_01
      {
        OFFSET 10.2279 -0.119797 -3.68907
        CHANNELS 6 Xposition Yposition Zposition Zrotation Xrotation Yrotation
        JOINT BN_Tai_L_02
        {
          OFFSET 15.0421 0 0
          CHANNELS 6 Xposition Yposition Zposition Zrotation Xrotation Yrotation
          End Site
          {
            OFFSET 0 0 0
          }
        }
      }
    }
    JOINT Bip01_Spine
    {
      OFFSET 2.7319 1.49192 0
      CHANNELS 6 Xposition Yposition Zposition Zrotation Xrotation Yrotation
      JOINT Bip01_R_Thigh
      {
        OFFSET -2.85206 -1.24717 -6.20578
        CHANNELS 6 Xposition Yposition Zposition Zrotation Xrotation Yrotation
        JOINT Bip01_R_Calf
        {
          OFFSET 6.73247 0 0
          CHANNELS 6 Xposition Yposition Zposition Zrotation Xrotation Yrotation
          JOINT Bip01_R_HorseLink
          {
            OFFSET 8.08523 0 0
            CHANNELS 6 Xposition Yposition Zposition Zrotation Xrotation Yrotation
            JOINT Bip01_R_Foot
            {
              OFFSET 8.97518 0 0
              CHANNELS 6 Xposition Yposition Zposition Zrotation Xrotation Yrotation
              JOINT BN_Toe_R_30
              {
                OFFSET 1.58762 -0.234982 -0.295153
                CHANNELS 6 Xposition Yposition Zposition Zrotation Xrotation Yrotation
                JOINT BN_Toe_R_31
                {
                  OFFSET 3.03849 0 0
                  CHANNELS 6 Xposition Yposition Zposition Zrotation Xrotation Yrotation
                  End Site
                  {
                    OFFSET 0 0 0
                  }
                }
              }
              JOINT BN_Toe_R_00
              {
                OFFSET 1.65463 0.933666 1.02414
                CHANNELS 6 Xposition Yposition Zposition Zrotation Xrotation Yrotation
                JOINT BN_Toe_R_01
                {
                  OFFSET 3.51775 0 0
                  CHANNELS 6 Xposition Yposition Zposition Zrotation Xrotation Yrotation
                  End Site
                  {
                    OFFSET 0 0 0
                  }
                }
              }
              JOINT BN_Toe_R_20
              {
                OFFSET 1.47309 1.0106 -1.16708
                CHANNELS 6 Xposition Yposition Zposition Zrotation Xrotation Yrotation
                JOINT BN_Toe_R_21
                {
                  OFFSET 3.94896 0 0
                  CHANNELS 6 Xposition Yposition Zposition Zrotation Xrotation Yrotation
                  End Site
                  {
                    OFFSET 0 0 0
                  }
                }
              }
              JOINT BN_Toe_R_10
              {
                OFFSET 1.07522 1.64225 0.0223596
                CHANNELS 6 Xposition Yposition Zposition Zrotation Xrotation Yrotation
                JOINT BN_Toe_R_11
                {
                  OFFSET 4.09655 0 0
                  CHANNELS 6 Xposition Yposition Zposition Zrotation Xrotation Yrotation
                  End Site
                  {
                    OFFSET 0 0 0
                  }
                }
              }
              JOINT Bip01_R_Toe0
              {
                OFFSET 2.04238 1.88275 0
                CHANNELS 6 Xposition Yposition Zposition Zrotation Xrotation Yrotation
                End Site
                {
                  OFFSET 0 0 0
                }
              }
            }
          }
        }
      }
      JOINT Bip01_L_Thigh
      {
        OFFSET -2.85154 -1.24849 6.20577
        CHANNELS 6 Xposition Yposition Zposition Zrotation Xrotation Yrotation
        JOINT Bip01_L_Calf
        {
          OFFSET 6.73247 0 0
          CHANNELS 6 Xposition Yposition Zposition Zrotation Xrotation Yrotation
          JOINT Bip01_L_HorseLink
          {
            OFFSET 8.08524 0 0
            CHANNELS 6 Xposition Yposition Zposition Zrotation Xrotation Yrotation
            JOINT Bip01_L_Foot
            {
              OFFSET 8.97521 0 0
              CHANNELS 6 Xposition Yposition Zposition Zrotation Xrotation Yrotation
              JOINT BN_Toe_L_00
              {
                OFFSET 1.65461 0.933701 -1.02419
                CHANNELS 6 Xposition Yposition Zposition Zrotation Xrotation Yrotation
                JOINT BN_Toe_L_01
                {
                  OFFSET 3.51778 0 0
                  CHANNELS 6 Xposition Yposition Zposition Zrotation Xrotation Yrotation
                  End Site
                  {
                    OFFSET 0 0 0
                  }
                }
              }
              JOINT BN_Toe_L_10
              {
                OFFSET 1.07523 1.6422 -0.0221281
                CHANNELS 6 Xposition Yposition Zposition Zrotation Xrotation Yrotation
                JOINT BN_Toe_L_11
                {
                  OFFSET 4.09657 0 0
                  CHANNELS 6 Xposition Yposition Zposition Zrotation Xrotation Yrotation
                  End Site
                  {
                    OFFSET 0 0 0
                  }
                }
              }
              JOINT BN_Toe_L_30
              {
                OFFSET 1.58761 -0.234954 0.295135
                CHANNELS 6 Xposition Yposition Zposition Zrotation Xrotation Yrotation
                JOINT BN_Toe_L_31
                {
                  OFFSET 3.03847 0 0
                  CHANNELS 6 Xposition Yposition Zposition Zrotation Xrotation Yrotation
                  End Site
                  {
                    OFFSET 0 0 0
                  }
                }
              }
              JOINT BN_Toe_L_20
              {
                OFFSET 1.4731 1.01055 1.1673
                CHANNELS 6 Xposition Yposition Zposition Zrotation Xrotation Yrotation
                JOINT BN_Toe_L_21
                {
                  OFFSET 3.94897 0 0
                  CHANNELS 6 Xposition Yposition Zposition Zrotation Xrotation Yrotation
                  End Site
                  {
                    OFFSET 0 0 0
                  }
                }
              }
              JOINT Bip01_L_Toe0
              {
                OFFSET 2.04238 1.88276 0
                CHANNELS 6 Xposition Yposition Zposition Zrotation Xrotation Yrotation
                End Site
                {
                  OFFSET 0 0 0
                }
              }
            }
          }
        }
      }
      JOINT Bip01_Spine1
      {
        OFFSET 8.6167 -0.00679016 0
        CHANNELS 6 Xposition Yposition Zposition Zrotation Xrotation Yrotation
        JOINT BN_Wing_R_01
        {
          OFFSET 0.267445 -6.12421 -7.49305
          CHANNELS 6 Xposition Yposition Zposition Zrotation Xrotation Yrotation
          JOINT BN_Wing_R_02
          {
            OFFSET 14.7158 0 0
            CHANNELS 6 Xposition Yposition Zposition Zrotation Xrotation Yrotation
            JOINT BN_Wing_R_03
            {
              OFFSET 19.0858 0 0
              CHANNELS 6 Xposition Yposition Zposition Zrotation Xrotation Yrotation
              JOINT BN_Wing_R_05
              {
                OFFSET 2.68908 -0.270637 0.785261
                CHANNELS 6 Xposition Yposition Zposition Zrotation Xrotation Yrotation
                JOINT BN_Wing_R_06
                {
                  OFFSET 21.1083 0 0
                  CHANNELS 6 Xposition Yposition Zposition Zrotation Xrotation Yrotation
                  End Site
                  {
                    OFFSET 0 0 0
                  }
                }
              }
              JOINT BN_Wing_R_04
              {
                OFFSET 27.642 0 0
                CHANNELS 6 Xposition Yposition Zposition Zrotation Xrotation Yrotation
                End Site
                {
                  OFFSET 0 0 0
                }
              }
            }
          }
        }
        JOINT BN_Wing_L_01
        {
          OFFSET 0.267452 -6.12421 7.49305
          CHANNELS 6 Xposition Yposition Zposition Zrotation Xrotation Yrotation
          JOINT BN_Wing_L_02
          {
            OFFSET 14.7158 0 0
            CHANNELS 6 Xposition Yposition Zposition Zrotation Xrotation Yrotation
            JOINT BN_Wing_L_03
            {
              OFFSET 19.0858 0 0
              CHANNELS 6 Xposition Yposition Zposition Zrotation Xrotation Yrotation
              JOINT BN_Wing_L_05
              {
                OFFSET 2.68908 -0.270635 -0.785254
                CHANNELS 6 Xposition Yposition Zposition Zrotation Xrotation Yrotation
                JOINT BN_Wing_L_06
                {
                  OFFSET 21.1083 0 0
                  CHANNELS 6 Xposition Yposition Zposition Zrotation Xrotation Yrotation
                  End Site
                  {
                    OFFSET 0 0 0
                  }
                }
              }
              JOINT BN_Wing_L_04
              {
                OFFSET 27.642 0 1.14441e-005
                CHANNELS 6 Xposition Yposition Zposition Zrotation Xrotation Yrotation
                End Site
                {
                  OFFSET 0 0 0
                }
              }
            }
          }
        }
        JOINT Bip01_Neck
        {
          OFFSET 7.59958 -1.43237 0
          CHANNELS 6 Xposition Yposition Zposition Zrotation Xrotation Yrotation
          JOINT Bip01_Neck1
          {
            OFFSET 3.64749 -0.00262451 0
            CHANNELS 6 Xposition Yposition Zposition Zrotation Xrotation Yrotation
            JOINT Bip01_Neck2
            {
              OFFSET 3.32331 -0.00284576 0
              CHANNELS 6 Xposition Yposition Zposition Zrotation Xrotation Yrotation
              JOINT Bip01_Head
              {
                OFFSET 4.63256 -0.573471 0
                CHANNELS 6 Xposition Yposition Zposition Zrotation Xrotation Yrotation
                JOINT BN_Jaw
                {
                  OFFSET 1.05386 2.23561 0
                  CHANNELS 6 Xposition Yposition Zposition Zrotation Xrotation Yrotation
                  End Site
                  {
                    OFFSET 0 0 0
                  }
                }
              }
            }
          }
        }
      }
    }
  }
}
MOTION
Frames:	4
Frame Time:	0.0333333
-0.133723 94.2184 0 135.356 -90 178.179 0 0 0 -89.9946 9.5772 -89.9948 -4.6544 -2.0605 -9.31323e-010 -8.12549 1.94848 179.532 10.228 -0.119789 3.6889 28.6032 80.8654 -27.8416 15.0421 -2.38419e-007 0 5.14665 -4.542 9.38255 10.2278 -0.119778 -3.68915 -138.507 78.4916 143.9 15.0421 0 7.10543e-015 -5.15014 4.54172 9.38269 3.04955 0.628594 -9.31323e-010 -8.20786 -1.26504e-010 2.14033e-010 1.52588e-005 3.8147e-006 -6.20578 -173.996 -21.4366 176.293 6.73249 3.8147e-006 -3.55271e-015 -117.413 -1.33665e-005 4.69694e-006 8.08522 3.8147e-006 0 116.106 6.08382e-007 -1.53046e-007 8.97519 7.62939e-006 0 -74.8203 -0.0604694 -24.4816 1.58764 -0.234993 -0.295148 146.154 0.761155 166.358 3.03847 7.6294e-006 -3.55271e-015 -45.9883 -5.74635e-006 8.56922e-006 1.65462 0.933655 1.02414 71.7281 27.4578 -45.3025 3.51775 -7.10543e-015 -1.52588e-005 31.7752 1.29121e-005 -7.65544e-006 1.4731 1.0106 -1.16707 66.6448 -8.00171 30.8802 3.94897 7.6294e-006 -7.62939e-006 32.8748 1.34143e-005 3.52392e-006 1.07522 1.64227 0.0223627 54.8099 -6.18649 -1.0778 4.09654 -7.6294e-006 2.38419e-007 56.2688 5.76942e-006 -8.03342e-006 2.04239 1.88274 9.53674e-007 87.4729 -2.52844 27.7808 -1.42109e-014 7.6294e-006 6.20577 -127.734 11.0933 171.28 6.73249 7.6294e-006 -9.53674e-007 -83.9793 -1.07472e-005 -5.83193e-006 8.08521 1.42109e-014 0 113.362 7.06438e-006 1.63105e-005 8.97519 -7.62939e-006 -1.77636e-015 -48.9875 4.93519 9.52306 1.65462 0.933723 -1.02418 66.714 -31.6813 42.8255 3.51775 5.72204e-006 7.62939e-006 47.7875 -1.54658e-005 2.48232e-005 1.07522 1.6422 -0.0221229 66.4582 -3.31651 6.53567 4.09654 3.81469e-006 -1.90735e-006 50.5759 5.78548e-006 7.92878e-006 1.58763 -0.234939 0.295138 135.264 5.7028 -177.038 3.03848 0 1.77636e-015 -38.7373 6.14694e-006 6.28655e-006 1.4731 1.01057 1.1673 66.8811 5.45928 -10.7952 3.94896 -1.90735e-006 3.55271e-015 48.5268 1.11227e-006 -2.16002e-007 2.04238 1.88279 3.57628e-007 120.306 0.489714 -30.702 8.61718 -0.00684357 0 -4.08905 1.12264e-005 -1.65445e-005 0.267433 -6.12425 -7.49305 -69.5951 -2.51832 27.042 14.7158 1.52588e-005 -1.90735e-006 51.3839 5.15674 -4.82341 19.0859 9.53674e-007 1.90735e-006 -36.6053 -2.24682 23.928 2.68913 -0.270637 0.785278 -43.8612 2.46969 4.79227 21.1082 -7.62939e-006 -1.52588e-005 -1.32049 -2.34547 36.8282 27.642 -1.52588e-005 7.62939e-006 -2.63555 -0.0475891 40.8152 0.267456 -6.12425 7.49305 -69.5951 2.51833 -27.042 14.7158 1.52588e-005 -5.72204e-006 51.3839 -5.15674 4.82341 19.0859 1.77636e-015 3.8147e-006 -36.6053 2.24683 -23.928 2.68911 -0.270645 -0.785271 -43.8612 -2.4697 -4.79227 21.1082 0 -3.8147e-006 -1.32052 2.34543 -36.8282 27.642 -1.42108e-014 1.52588e-005 -2.6354 0.0477609 -40.8152 7.59943 -1.43241 -9.31323e-010 3.77414 -3.88251e-018 2.08441e-010 3.64921 -0.00225449 -1.86265e-009 31.3246 8.55789e-006 -5.208e-006 3.32335 -0.00287628 0 -4.46352 6.28372e-010 -9.17546e-011 4.63258 -0.573494 0 -7.21592 4.15231e-010 2.34623e-010 1.0539 2.23561 -9.31323e-010 -79.0055 -0.0312347 -179.962 
-0.132585 93.0224 1.56136e-007 -53.3157 -89.9794 -8.61703 0 0 0 -89.9946 9.87955 -89.9948 -4.65659 -2.06046 -9.28866e-010 -7.84239 1.93586 179.528 10.228 -0.119789 3.6889 28.1129 80.9402 -26.901 15.0421 -2.38419e-007 1.42108e-014 5.13779 -4.5949 10.5553 10.2278 -0.119778 -3.68915 -138.638 78.5318 144.439 15.0421 8.88179e-016 -1.42109e-014 -5.14191 4.59393 10.5698 3.04568 0.646171 -9.31337e-010 -8.07316 0.00178057 0.024942 1.52588e-005 3.8147e-006 -6.20578 -161.877 -21.4095 178.666 6.73249 3.8147e-006 -3.55271e-015 -104.57 -1.1988e-005 7.55057e-006 8.08522 3.8147e-006 -3.55271e-015 108.144 1.1115e-006 -2.27146e-007 8.97519 7.62939e-006 1.77636e-014 -74.3911 0.815866 -23.3334 1.58764 -0.234993 -0.295148 146.102 0.727737 166.384 3.03847 7.6294e-006 -3.55271e-015 -45.7547 0.00310604 -0.00302236 1.65462 0.933655 1.02414 71.6792 27.5036 -44.9852 3.51775 -7.10543e-014 -1.52588e-005 31.2309 -0.00875042 -0.0144598 1.4731 1.0106 -1.16707 66.4857 -8.09696 30.7541 3.94897 7.6294e-006 -7.62939e-006 32.713 -0.00228989 -0.00358247 1.07522 1.64227 0.0223627 54.8995 -6.18726 -1.06752 4.09654 -7.6294e-006 2.38419e-007 55.8894 5.12757e-006 -8.46661e-006 2.04239 1.88274 9.53472e-007 87.0839 -2.66334 27.6125 5.68434e-014 7.6294e-006 6.20577 -127.884 10.6834 172.143 6.73249 7.6294e-006 -9.53674e-007 -83.2366 -8.6154e-007 -6.87001e-006 8.08521 7.10543e-015 -7.10543e-015 104.599 4.70825e-006 1.71605e-005 8.97519 -7.62939e-006 -5.32907e-015 -47.8792 3.53798 9.22224 1.65462 0.933723 -1.02418 66.5338 -31.8019 42.3928 3.51775 5.72204e-006 7.62939e-006 47.3752 0.00633102 0.00586383 1.07522 1.6422 -0.0221229 66.2833 -3.28946 6.5149 4.09654 3.81469e-006 -1.90735e-006 50.2459 -1.75904e-006 1.53309e-006 1.58763 -0.234939 0.295138 135.815 5.76362 -177.077 3.03848 -1.42108e-014 3.55271e-015 -39.09 0.000310419 -0.000368164 1.4731 1.01057 1.1673 66.7929 5.51295 -10.5998 3.94896 -1.90735e-006 -7.10543e-015 48.1082 -0.00196431 -0.00176309 2.04238 1.88279 3.56418e-007 119.979 0.614712 -30.6196 8.61718 -0.00684357 0 -3.6683 1.11046e-005 -1.66265e-005 0.267433 -6.12425 -7.49305 -69.5309 -2.61523 25.7626 14.7158 1.52588e-005 -1.90735e-006 50.3589 5.22709 -4.71934 19.0859 9.53674e-007 1.90735e-006 -35.5135 -1.92892 21.6171 2.68913 -0.270637 0.785278 -44.2553 2.4341 4.61865 21.1082 -7.62939e-006 -1.52588e-005 -1.33055 -2.35596 35.5663 27.642 -1.52588e-005 7.62939e-006 -2.63633 -0.0486857 39.0353 0.267456 -6.12424 7.49305 -69.5346 2.66036 -25.7629 14.7158 1.52588e-005 -5.72204e-006 50.3589 -5.2271 4.71935 19.0859 -8.88178e-015 3.8147e-006 -35.5135 1.92892 -21.6171 2.68911 -0.270645 -0.785271 -44.2553 -2.43411 -4.61865 21.1082 5.68434e-014 -3.8147e-006 -1.33058 2.35592 -35.5663 27.642 -1.42108e-013 1.52588e-005 -2.63397 0.0509613 -39.3321 7.59943 -1.43241 -9.31322e-010 3.39886 -0.0282387 0.000866089 3.64921 -0.00225449 -1.86265e-009 29.0225 -0.010736 -0.0193709 3.32335 -0.00287628 -1.73472e-017 -4.4211 -0.00937358 0.0597179 4.63258 -0.573494 3.88578e-016 -5.72904 0.0080287 0.0516746 1.0539 2.23561 -9.31322e-010 -79.3181 -0.0242462 -179.964 
-0.129451 91.7681 3.19591e-007 -54.2252 -89.9592 -7.71215 0 0 0 -89.9946 10.192 -89.9948 -4.65872 -2.05682 -9.14506e-010 -7.13708 1.90354 179.504 10.228 -0.119789 3.6889 27.646 81.0311 -25.5425 15.0421 -2.38419e-007 1.42108e-014 5.10174 -4.7186 13.0146 10.2278 -0.119778 -3.68915 -138.584 78.5597 145.117 15.0421 -1.77636e-015 0 -5.11045 4.71593 13.0572 3.04191 0.663392 -9.3135e-010 -7.9239 0.003353 0.052815 1.52588e-005 3.8147e-006 -6.20578 -148.534 -20.8945 -178.773 6.73249 3.8147e-006 7.10543e-015 -89.9863 -9.70059e-006 1.03258e-005 8.08522 3.8147e-006 -3.55271e-015 99.2414 1.32502e-006 -8.36042e-008 8.97519 7.62939e-006 7.10543e-015 -73.9082 1.57835 -21.8565 1.58764 -0.234993 -0.295148 145.935 0.577034 166.42 3.03847 7.6294e-006 -3.55271e-015 -45.5256 0.00611555 -0.00600156 1.65462 0.933655 1.02414 71.6333 27.5433 -44.4916 3.51775 -1.27898e-013 -1.52588e-005 29.8381 -0.0117543 -0.0205219 1.4731 1.0106 -1.16707 66.1232 -8.3114 30.3867 3.94897 7.6294e-006 -7.62939e-006 32.5543 -0.00454391 -0.00713514 1.07522 1.64227 0.0223627 55.1433 -6.19143 -1.04103 4.09654 -7.6294e-006 2.38419e-007 55.5173 5.16828e-006 -8.43227e-006 2.04239 1.88274 9.53295e-007 86.7021 -2.7945 27.4465 0 7.6294e-006 6.20577 -128.068 10.2726 173.083 6.73249 7.6294e-006 -9.53674e-007 -82.1433 -9.73906e-007 -6.84924e-006 8.08521 -7.10543e-015 4.44089e-015 94.6467 1.44315e-006 1.77775e-005 8.97519 -7.62939e-006 -1.77636e-015 -46.3001 2.28114 8.69206 1.65462 0.933723 -1.02418 66.2232 -31.9764 41.7506 3.51775 5.72204e-006 7.62939e-006 46.9709 0.0124925 0.0116965 1.07522 1.6422 -0.0221229 65.8569 -3.2235 6.45654 4.09654 3.81469e-006 -1.90735e-006 49.9223 -1.52057e-006 1.4654e-006 1.58763 -0.234939 0.295138 136.453 5.72692 -177.157 3.03848 0 1.77636e-014 -39.4358 0.000607727 -0.000724943 1.4731 1.01057 1.1673 66.5709 5.66866 -10.389 3.94896 -1.90735e-006 -3.55271e-015 47.6977 -0.00381077 -0.00346882 2.04238 1.88279 3.5526e-007 118.887 1.0276 -30.3429 8.61718 -0.00684357 0 -3.22831 1.09766e-005 -1.67113e-005 0.267443 -6.12424 -7.49305 -69.4584 -2.72049 24.3195 14.7158 1.52588e-005 -1.90735e-006 47.8056 5.40231 -4.46013 19.0859 9.53674e-007 1.90735e-006 -32.67 -1.07319 15.851 2.68913 -0.270637 0.785278 -45.2285 2.34928 4.1885 21.1082 -7.62939e-006 -1.52588e-005 -1.34706 -2.37816 32.2952 27.642 -1.52588e-005 7.62939e-006 -2.64175 -0.0535663 34.4431 0.267446 -6.12424 7.49305 -69.4702 2.81744 -24.3239 14.7158 1.52588e-005 -5.72204e-006 47.8056 -5.40231 4.46014 19.0859 -2.66453e-014 3.8147e-006 -32.67 1.07319 -15.851 2.68911 -0.270645 -0.785271 -45.2285 -2.34928 -4.1885 21.1082 4.26325e-014 -3.8147e-006 -1.34709 2.37812 -32.2952 27.642 -3.69482e-013 1.52588e-005 -2.6386 0.0509232 -35.4774 7.59943 -1.43241 -9.31321e-010 2.95722 -0.055846 0.00494002 3.64921 -0.00225449 -1.86265e-009 26.625 -0.019895 -0.0397084 3.32335 -0.00287628 2.08167e-017 -4.37951 -0.018522 0.118282 4.63258 -0.573494 -5.55112e-017 -4.27105 0.017189 0.102129 1.0539 2.23561 -9.31317e-010 -79.6246 -0.0174103 -179.965 
-0.124455 90.4806 4.87109e-007 -55.1396 -89.9389 -6.79305 0 0 0 -89.9947 10.5164 -89.9948 -4.66089 -2.05129 -9.14193e-010 -6.16341 1.85577 179.475 10.228 -0.119789 3.6889 27.2043 81.1265 -23.9274 15.0421 -2.38419e-007 0 5.07969 -4.85686 16.3314 10.2278 -0.119778 -3.68915 -138.426 78.5898 145.891 15.0421 1.77636e-015 -2.13163e-014 -5.08743 4.84915 16.4144 3.03809 0.680798 -9.31363e-010 -7.75564 0.00851699 0.081197 1.52588e-005 3.8147e-006 -6.20578 -134.773 -19.8147 -176.32 6.73249 3.8147e-006 -3.55271e-015 -74.7521 1.83424e-006 1.02002e-005 8.08522 3.8147e-006 -7.10543e-015 89.9764 1.73579e-007 1.30344e-007 8.97519 7.62939e-006 1.42109e-014 -73.4827 2.30717 -20.0565 1.58764 -0.234993 -0.295148 145.735 0.491311 166.568 3.03847 7.6294e-006 1.06581e-014 -45.2942 0.00917854 -0.00908207 1.65462 0.933655 1.02414 71.5831 27.5764 -43.8211 3.51775 -1.98952e-013 -1.52588e-005 27.6503 -0.00786911 -0.0150507 1.4731 1.0106 -1.16707 65.6988 -8.5579 29.8045 3.94897 7.6294e-006 -7.62939e-006 32.394 -0.00677796 -0.0107005 1.07522 1.64227 0.0223627 55.5372 -6.19463 -0.995962 4.09654 -7.6294e-006 2.38419e-007 55.1415 5.20243e-006 -8.39271e-006 2.04239 1.88274 9.5315e-007 85.9191 -3.05752 27.106 2.84217e-014 7.6294e-006 6.20577 -128.246 9.83722 174.054 6.73249 7.6294e-006 -9.53674e-007 -80.9473 -2.07453e-006 -6.66828e-006 8.08521 -7.10543e-015 -3.55271e-015 84.2572 -1.71518e-006 1.77836e-005 8.97519 -7.62939e-006 2.66454e-015 -44.6061 1.20716 8.0003 1.65462 0.933723 -1.02418 65.7928 -32.1994 40.9016 3.51775 5.72204e-006 7.62939e-006 46.5626 0.0186492 0.0176923 1.07522 1.6422 -0.0221229 65.1935 -3.11253 6.36362 4.09654 3.81469e-006 -1.90735e-006 49.5955 6.36157e-006 7.85989e-006 1.58763 -0.234939 0.295138 137.201 5.76537 -177.228 3.03848 0 2.4869e-014 -39.7851 0.000909417 -0.00107807 1.4731 1.01057 1.1673 66.3462 5.82508 -10.1755 3.94896 -1.90735e-006 -5.32907e-015 47.2831 -0.00559229 -0.00516431 2.04238 1.88279 3.54384e-007 117.783 1.4391 -30.0556 8.61718 -0.00684357 5.55112e-017 -2.76303 1.08405e-005 -1.67999e-005 0.267443 -6.12423 -7.49305 -69.3304 -2.88957 21.8259 14.7158 1.52588e-005 -1.90735e-006 44.2778 5.64423 -4.10207 19.0859 9.53674e-007 1.90735e-006 -28.4465 0.207265 7.85856 2.68913 -0.270637 0.785278 -46.5787 2.23553 3.59393 21.1082 -7.62939e-006 -1.52588e-005 -1.3654 -2.3972 27.4895 27.6419 -1.52588e-005 7.62939e-006 -2.64843 -0.0566814 27.7719 0.267456 -6.12423 7.49305 -69.3577 3.06004 -21.8331 14.7158 1.52588e-005 -5.72204e-006 44.2778 -5.64422 4.10208 19.0859 -8.34887e-014 3.8147e-006 -28.4465 -0.207262 -7.85856 2.68911 -0.270645 -0.785271 -46.5787 -2.23554 -3.59392 21.1082 -1.13687e-013 -3.8147e-006 -1.36541 2.39718 -27.4894 27.642 -6.32383e-013 1.52588e-005 -2.64518 0.0564648 -29.8196 7.59943 -1.43241 -9.31323e-010 2.51116 -0.083759 0.008832 3.64921 -0.00225449 -1.86265e-009 24.0833 -0.0271894 -0.0608548 3.32335 -0.00287628 2.77556e-017 -4.41623 -0.0295189 0.1756 4.63258 -0.573494 -1.69309e-015 -2.64458 0.01133 0.15336 1.0539 2.23561 -9.31304e-010 -80.5636 -0.0213318 -179.965 
